<?xml version="1.0" encoding="UTF-8"?><svg xmlns="http://www.w3.org/2000/svg" viewBox="0 0 32.04 18.18"><defs><style>.d{fill:#efefef;}.e{fill:none;stroke:#efefef;stroke-miterlimit:10;stroke-width:2px;}</style></defs><g id="a"/><g id="b"><g id="c"><g><path class="d" d="M1,3.04c.03-.75,.08-1.45,.66-1.82,.6-.39,1.21-.23,1.77,.25,1.29,1.12,2.72,2.1,4.01,3.23,1.41,1.23,2.57,2.73,3.98,3.96s2.88,2.38,4.29,3.62c.18,.16,.33,.04,.5-.11,2.04-1.79,3.93-3.74,5.97-5.52s4.36-3.24,6.4-5.03c.82-.71,1.48-.55,2.04,.38,.57,.97,.61,2.15-.21,2.87-1.66,1.46-3.25,2.99-4.91,4.45-1.39,1.22-2.9,2.29-4.29,3.51s-2.64,2.59-4.03,3.81c-.77,.68-1.62,.73-2.39,.05-1.48-1.3-2.87-2.69-4.35-3.98s-2.79-2.79-4.27-4.08S3.01,6.27,1.53,4.98c-.51-.44-.52-1.11-.53-1.94Z"/><path class="e" d="M1,3.04c.03-.75,.08-1.45,.66-1.82,.6-.39,1.21-.23,1.77,.25,1.29,1.12,2.72,2.1,4.01,3.23,1.41,1.23,2.57,2.73,3.98,3.96s2.88,2.38,4.29,3.62c.18,.16,.33,.04,.5-.11,2.04-1.79,3.93-3.74,5.97-5.52s4.36-3.24,6.4-5.03c.82-.71,1.48-.55,2.04,.38,.57,.97,.61,2.15-.21,2.87-1.66,1.46-3.25,2.99-4.91,4.45-1.39,1.22-2.9,2.29-4.29,3.51s-2.64,2.59-4.03,3.81c-.77,.68-1.62,.73-2.39,.05-1.48-1.3-2.87-2.69-4.35-3.98s-2.79-2.79-4.27-4.08S3.01,6.27,1.53,4.98c-.51-.44-.52-1.11-.53-1.94Z"/></g></g></g></svg>