<?xml version="1.0" encoding="UTF-8"?><svg xmlns="http://www.w3.org/2000/svg" viewBox="0 0 730.43 703.49"><defs><style>.d{fill:#98c1d9;}</style></defs><g id="a"/><g id="b"><g id="c"><path class="d" d="M729.72,665.28c2.85-45.61-3.74-91.25-4.33-136.94-.61-47.06,5.13-94.06,3.69-141.1-1.47-47.97-19.37-93.72-13.35-140.73,3.08-24.07,2.42-48.61-1.88-72.5-1.47-8.17-2.32-18.83-6.18-26.27-3.73-7.18-10.84-11.47-13.81-19.56-1.46-3.98-2.17-8.27-4.35-11.91-4.68-7.82-16.33-10.35-23.83-5.18-3.97,2.74-6.57,7.05-8.57,11.44-3.07,6.73-4.97,14.7-1.83,21.39,3.57,7.6,13.31,13.74,10.71,21.72-1.71,5.25-7.93,7.28-13.3,8.57-2.84,.68-6.17,1.25-8.4-.64-1.16-.98-1.76-2.44-2.55-3.73-5.24-8.52-18.65-8.17-26.44-1.9-7.79,6.27-11.37,16.26-14.58,25.73-11.86-.05-20.47-12.3-21.81-24.09-1.33-11.78,2.37-23.47,4.01-35.21,2.12-15.11-14.02-15.32-24.78-11.88-4.89,1.56-9.31,5.86-9.29,11,0,2.31,.88,4.52,1.62,6.71,2.34,6.99,3.33,14.42,2.9,21.78-.12,1.99-.37,4.07-1.53,5.68-1.39,1.94-3.8,2.82-6.08,3.52-4.32,1.33-8.72,2.4-13.17,3.19-1.78,.32-3.67,.59-5.37-.05-1.47-.55-2.64-1.72-3.52-3.02-3.92-5.78-2.72-13.57-.5-20.2,2.22-6.62,5.35-13.27,4.81-20.23-.54-7-5.12-13.53-11.5-16.44-6.38-2.91-14.32-2.07-19.96,2.1-7.87,5.83-12.39,13.5-12.13,23.54,.24,9.58,6.14,13.96,10.89,21.84,1.17,1.95,2.32,4.08,2.15,6.35-.28,3.81-4,6.32-7.39,8.09-8.95,4.64-18.41,8.28-28.17,10.83-1.66,.43-3.45,.83-5.05,.2-2.1-.82-3.18-3.12-3.88-5.27-3.06-9.29-2.91-19.59,.4-28.79,1.21-3.35,2.83-6.57,3.48-10.07,.65-3.5,.15-7.46-2.37-9.97-2.35-2.33-5.88-2.92-9.18-3.19-9.68-.79-20.85-.4-27.27-7.7-5.27-6-5.09-14.97-3.76-22.84,1.32-7.88,3.48-16.04,1.17-23.69-3.36-11.12-17.08-17.79-27.9-13.57-9.05,3.53-13.33-5.84-14.64-14.04-1.24-7.74,2.24-15.34,4.36-22.88,2.12-7.55,2.41-16.84-3.51-21.97-5.77-4.99-14.56-3.63-21.81-1.28-2.42,.78-4.85,1.67-6.9,3.16-3.26,2.38-5.28,6.11-6.65,9.9-2.93,8.09-3.23,17.54,1.1,24.97,3.12,5.35,8.65,10.12,8.04,16.28-.61,6.22-7.14,9.87-12.96,12.13-7.38,2.87-14.95,5.25-22.65,7.12-1.06,.26-2.22,.49-3.19,0-.62-.31-1.07-.87-1.48-1.42-3.78-5.15-5.58-11.73-4.94-18.08,.55-5.47,2.81-10.62,4.13-15.96,1.48-5.96,2.17-13.66-.39-19.47-2.6-5.88-10.44-5.27-16.46-4.73-5.18,.46-10.43,2.39-13.88,6.27-2.41,2.71-3.79,6.17-5.12,9.54-2.54,6.45-4.99,14.12-1.22,19.93,3.86,5.94,13.19,7.96,14.48,14.92,.59,3.23-.89,6.48-2.72,9.2-1.23,1.83-2.92,3.7-5.13,3.75-1.71,.04-3.21-1.04-4.71-1.88-7.41-4.11-17.31-2.24-23.51,3.54s-8.82,14.78-7.88,23.2c.57,5.07,2.33,10.01,5.11,14.29,2.21,3.41,5.08,6.45,6.61,10.22,1.53,3.77,1.29,8.72-1.96,11.17-.87,.66-1.89,1.08-2.9,1.5-5.49,2.28-10.99,5.31-16.57,7.22-6.63,2.27-12.23,2.8-17.42,8.23-5.06,5.29-7.75,12.75-7.23,20.05,.08,1.19,.26,2.39,.81,3.45,.79,1.51,2.25,2.52,3.61,3.55,3.47,2.63,6.6,5.72,9.25,9.17,3.1,4.03,5.57,9.65,2.95,14.01-1.19,1.98-3.22,3.27-5.18,4.48-7.22,4.48-14.44,8.97-21.66,13.45-1.71,1.06-3.55,2.16-5.56,2.04-2.28-.13-4.14-1.77-6.18-2.8-6.86-3.46-15.2,.33-21.05,5.31-4.24,3.61-8,8.02-9.78,13.3-1.79,5.28-1.34,11.52,2.12,15.89,14.03,17.69,17.02,13.72-2.73,27.76-14.92,10.6-25.82,27.13-29.59,45.03-4.07,19.35-.27,39.38-.01,59.16,.05,3.9-.08,7.98-1.92,11.42-7.55,14.11-33.56,4.79-42.47,18.09-9.27,13.85,10.56,36.77-2.18,47.51-1.75,1.48-3.9,2.4-5.83,3.64-13.54,8.76-11.47,29.62-3.55,43.67s20.14,26.35,22.86,42.24c.43,2.5,.58,5.16-.42,7.48-1.2,2.77-3.84,4.62-6.42,6.18-16.76,10.15-39.12,17.86-43.06,37.05-.94,4.56-.81,9.76-3.99,13.16-5.57,5.95-15.62,1.47-23.52,3.47C4.81,626.72,.05,634.33,0,641.75s3.83,14.44,9.03,19.74c7.5,7.66,18.96,16.74,14.04,26.25-1.35,2.61-3.86,4.63-4.6,7.48-.77,3,.54,5.67,2.44,8.27H720.07c3.81-12.59,8.84-25.2,9.65-38.22Z"/></g></g></svg>