<?xml version="1.0" encoding="UTF-8"?><svg xmlns="http://www.w3.org/2000/svg" viewBox="0 0 690.27 722.4"><defs><style>.d{fill:#98c1d9;}</style></defs><g id="a"/><g id="b"><g id="c"><path class="d" d="M690.27,114.81c-5.29-6.38-15.69-8.14-22.59-3.39-3.98,2.74-6.59,7.07-8.59,11.47-3.08,6.75-4.99,14.74-1.84,21.46,3.58,7.62,13.35,13.78,10.74,21.79-1.72,5.27-7.95,7.3-13.34,8.59-2.85,.68-6.19,1.26-8.42-.64-1.16-.98-1.76-2.45-2.56-3.74-5.26-8.54-18.7-8.19-26.52-1.9-7.81,6.29-11.4,16.31-14.63,25.81-11.89-.05-20.53-12.34-21.87-24.16-1.34-11.82,2.38-23.54,4.03-35.32,2.12-15.15-14.06-15.36-24.85-11.92-4.91,1.57-9.34,5.88-9.32,11.03,0,2.32,.89,4.53,1.62,6.73,2.34,7.01,3.34,14.46,2.9,21.84-.12,1.99-.37,4.08-1.54,5.7-1.4,1.94-3.81,2.83-6.1,3.54-4.33,1.34-8.74,2.41-13.21,3.2-1.79,.32-3.68,.59-5.38-.05-1.48-.55-2.65-1.73-3.53-3.03-3.93-5.8-2.73-13.62-.5-20.26,2.23-6.64,5.36-13.31,4.82-20.29-.54-7.02-5.13-13.57-11.53-16.49-6.4-2.92-14.36-2.08-20.02,2.11-7.89,5.85-12.42,13.54-12.17,23.61,.25,9.61,6.16,14,10.93,21.9,1.18,1.95,2.33,4.09,2.16,6.37-.28,3.83-4.01,6.34-7.42,8.11-8.97,4.66-18.47,8.31-28.25,10.86-1.66,.43-3.46,.83-5.06,.2-2.11-.83-3.19-3.13-3.9-5.28-3.07-9.31-2.92-19.65,.41-28.88,1.21-3.36,2.84-6.59,3.49-10.1s.15-7.49-2.38-10c-2.35-2.34-5.9-2.93-9.2-3.2-9.71-.79-20.92-.4-27.35-7.73-5.28-6.02-5.1-15.01-3.77-22.91,1.33-7.9,3.49-16.09,1.17-23.76-3.37-11.15-17.13-17.84-27.98-13.61-9.08,3.54-13.37-5.85-14.68-14.08-1.24-7.76,2.25-15.38,4.37-22.95,2.13-7.57,2.42-16.89-3.52-22.03-5.78-5.01-14.6-3.64-21.88-1.28-2.43,.79-4.86,1.67-6.92,3.17-3.27,2.39-5.3,6.13-6.67,9.93-2.94,8.12-3.24,17.59,1.1,25.04,3.13,5.36,8.67,10.15,8.06,16.33-.61,6.23-7.16,9.9-13,12.17-7.4,2.88-15,5.27-22.72,7.14-1.06,.26-2.23,.49-3.2,0-.62-.31-1.08-.87-1.49-1.43-3.79-5.17-5.59-11.76-4.95-18.14,.55-5.49,2.81-10.65,4.14-16,1.48-5.98,2.18-13.71-.39-19.52-2.61-5.9-10.47-5.29-16.51-4.75-5.2,.47-10.46,2.39-13.93,6.29-2.42,2.72-3.8,6.19-5.14,9.57-2.55,6.47-5.01,14.16-1.22,19.99,3.87,5.96,13.23,7.98,14.52,14.97,.6,3.24-.9,6.5-2.73,9.23-1.23,1.83-2.93,3.71-5.14,3.76-1.72,.04-3.22-1.05-4.72-1.88-7.43-4.12-17.36-2.24-23.58,3.55s-8.85,14.82-7.9,23.27c.57,5.09,2.34,10.04,5.12,14.33,2.22,3.42,5.1,6.47,6.63,10.25,1.53,3.78,1.29,8.75-1.97,11.2-.87,.66-1.9,1.09-2.91,1.51-5.51,2.29-11.02,5.33-16.62,7.24-6.65,2.27-12.27,2.81-17.48,8.25-5.07,5.3-7.77,12.79-7.26,20.11,.08,1.19,.26,2.4,.81,3.46,.79,1.51,2.26,2.53,3.62,3.56,3.49,2.63,6.62,5.74,9.28,9.2,3.11,4.04,5.59,9.68,2.96,14.05-1.19,1.98-3.23,3.28-5.2,4.5-7.24,4.5-14.48,8.99-21.72,13.49-1.71,1.06-3.56,2.16-5.57,2.05-2.29-.13-4.15-1.78-6.2-2.81-6.88-3.47-15.25,.33-21.11,5.32-4.25,3.62-8.02,8.05-9.81,13.34-1.79,5.29-1.34,11.55,2.13,15.93,14.07,17.74,17.07,13.76-2.74,27.84-14.96,10.63-25.9,27.21-29.68,45.17-4.08,19.41-.27,39.5-.01,59.34,.05,3.91-.08,8-1.92,11.45-7.58,14.16-33.66,4.8-42.59,18.15-9.3,13.89,10.59,36.88-2.19,47.66-1.76,1.48-3.91,2.4-5.85,3.65-13.59,8.78-11.5,29.71-3.56,43.8,7.94,14.09,20.2,26.42,22.93,42.37,.43,2.51,.59,5.17-.42,7.51-1.2,2.78-3.85,4.63-6.44,6.2-16.81,10.18-39.23,17.91-43.19,37.16-.94,4.58-.81,9.79-4.01,13.2-5.59,5.97-15.67,1.47-23.59,3.48C4.83,628.6,.05,636.23,0,643.68s3.84,14.48,9.05,19.8c7.52,7.68,19.02,16.79,14.08,26.33-1.36,2.62-3.87,4.64-4.61,7.5-2.1,8.12,11.11,13.86,9.77,22.14-.17,1.08-.58,2.04-1.12,2.94H690.27V114.81Z"/></g></g></svg>