<?xml version="1.0" encoding="UTF-8"?><svg xmlns="http://www.w3.org/2000/svg" viewBox="0 0 717.09 722.4"><defs><style>.d{fill:#98c1d9;}</style></defs><g id="a"/><g id="b"><g id="c"><g><path class="d" d="M689.76,131.11v-16.3c-5.29-6.38-15.67-8.14-22.57-3.39-3.98,2.74-6.58,7.07-8.59,11.47-3.07,6.75-4.98,14.74-1.83,21.46,3.57,7.62,13.34,13.78,10.73,21.79-1.71,5.27-7.94,7.3-13.33,8.59-2.85,.68-6.19,1.26-8.42-.64-1.16-.98-1.76-2.45-2.56-3.74-5.25-8.54-18.69-8.19-26.5-1.9-7.81,6.29-11.39,16.31-14.62,25.81-11.88-.05-20.52-12.34-21.86-24.16-1.34-11.82,2.37-23.54,4.02-35.32,2.12-15.15-14.05-15.36-24.83-11.92-4.91,1.57-9.33,5.88-9.31,11.03,0,2.32,.88,4.53,1.62,6.73,2.34,7.01,3.33,14.46,2.9,21.84-.12,1.99-.37,4.08-1.54,5.7-1.4,1.94-3.81,2.83-6.09,3.54-4.33,1.34-8.74,2.41-13.2,3.2-1.79,.32-3.68,.59-5.38-.05-1.48-.55-2.65-1.73-3.53-3.03-3.93-5.8-2.72-13.62-.5-20.26,2.23-6.64,5.36-13.31,4.82-20.29-.54-7.02-5.13-13.57-11.53-16.49-6.4-2.92-14.35-2.08-20,2.11-7.88,5.85-12.41,13.54-12.16,23.61,.25,9.61,6.15,14,10.92,21.9,1.18,1.95,2.32,4.09,2.16,6.37-.28,3.83-4.01,6.34-7.41,8.11-8.97,4.66-18.45,8.31-28.23,10.86-1.66,.43-3.46,.83-5.06,.2-2.11-.83-3.18-3.13-3.89-5.28-3.07-9.31-2.92-19.65,.41-28.88,1.21-3.36,2.83-6.59,3.48-10.1,.65-3.51,.15-7.49-2.38-10-2.35-2.34-5.89-2.93-9.2-3.2-9.71-.79-20.9-.4-27.33-7.73-5.28-6.02-5.1-15.01-3.77-22.91,1.33-7.9,3.48-16.09,1.17-23.76-3.37-11.15-17.12-17.84-27.96-13.61-9.07,3.54-13.36-5.85-14.67-14.08-1.24-7.76,2.25-15.38,4.37-22.95,2.12-7.57,2.42-16.89-3.52-22.03-5.78-5.01-14.59-3.64-21.86-1.28-2.42,.79-4.86,1.67-6.92,3.17-3.27,2.39-5.29,6.13-6.67,9.93-2.93,8.12-3.24,17.59,1.1,25.04,3.12,5.36,8.67,10.15,8.06,16.33-.61,6.23-7.16,9.9-12.99,12.17-7.4,2.88-14.99,5.27-22.7,7.14-1.06,.26-2.22,.49-3.2,0-.62-.31-1.08-.87-1.49-1.43-3.79-5.17-5.59-11.76-4.95-18.14,.55-5.49,2.81-10.65,4.14-16,1.48-5.98,2.18-13.71-.39-19.52-2.6-5.9-10.46-5.29-16.5-4.75-5.19,.47-10.45,2.39-13.92,6.29-2.42,2.72-3.8,6.19-5.13,9.57-2.55,6.47-5,14.16-1.22,19.99,3.86,5.96,13.22,7.98,14.51,14.97,.6,3.24-.9,6.5-2.73,9.23-1.23,1.83-2.93,3.71-5.14,3.76-1.72,.04-3.22-1.05-4.72-1.88-7.42-4.12-17.35-2.24-23.56,3.55s-8.84,14.82-7.9,23.27c.57,5.09,2.34,10.04,5.12,14.33,2.22,3.42,5.09,6.47,6.62,10.25,1.53,3.78,1.29,8.75-1.97,11.2-.87,.66-1.9,1.09-2.91,1.51-5.5,2.29-11.01,5.33-16.61,7.24-6.65,2.27-12.26,2.81-17.46,8.25-5.07,5.3-7.77,12.79-7.25,20.11,.08,1.19,.26,2.4,.81,3.46,.79,1.51,2.26,2.53,3.62,3.56,3.48,2.63,6.61,5.74,9.27,9.2,3.1,4.04,5.59,9.68,2.96,14.05-1.19,1.98-3.23,3.28-5.2,4.5-7.24,4.5-14.47,8.99-21.71,13.49-1.71,1.06-3.56,2.16-5.57,2.05-2.28-.13-4.15-1.78-6.19-2.81-6.87-3.47-15.24,.33-21.1,5.32-4.25,3.62-8.01,8.05-9.81,13.34s-1.34,11.55,2.13,15.93c14.06,17.74,17.06,13.76-2.74,27.84-14.95,10.63-25.88,27.21-29.65,45.17-4.08,19.41-.27,39.5-.01,59.34,.05,3.91-.08,8-1.92,11.45-7.57,14.16-33.64,4.8-42.56,18.15-9.29,13.89,10.58,36.88-2.19,47.66-1.76,1.48-3.91,2.4-5.84,3.65-13.58,8.78-11.5,29.71-3.56,43.8,7.93,14.09,20.19,26.42,22.91,42.37,.43,2.51,.59,5.17-.42,7.51-1.2,2.78-3.85,4.63-6.44,6.2-16.8,10.18-39.2,17.91-43.16,37.16-.94,4.58-.81,9.79-4,13.2-5.59,5.97-15.66,1.47-23.58,3.48C4.82,628.6,.05,636.23,0,643.68s3.84,14.48,9.05,19.8c7.52,7.68,19,16.79,14.07,26.33-1.35,2.62-3.87,4.64-4.61,7.5-2.1,8.12,11.1,13.86,9.77,22.14-.17,1.08-.58,2.04-1.12,2.94H689.76V131.11Z"/><path class="d" d="M702.83,722.4c2.39-18.31,12.37-36.29,13.55-55.12,2.85-45.74-3.75-91.52-4.34-137.35-.61-47.2,5.14-94.35,3.7-141.53-1.47-48.11-19.41-94-13.38-141.16,3.09-24.15,2.43-48.76-1.89-72.71-1.48-8.2-2.32-18.88-6.19-26.35-3.74-7.2-1.53-8.96-4.5-17.07V722.4h13.06Z"/></g></g></g></svg>